<?xml version="1.0" encoding="utf-8"?>
<!-- Generator: Adobe Illustrator 24.1.0, SVG Export Plug-In . SVG Version: 6.00 Build 0)  -->
<svg version="1.1" id="Layer_1" xmlns="http://www.w3.org/2000/svg" xmlns:xlink="http://www.w3.org/1999/xlink" x="0px" y="0px"
	 viewBox="0 0 512 512" style="enable-background:new 0 0 512 512;" xml:space="preserve">
<style type="text/css">
	.st0{fill:#FFFFFF;}
	.st1{fill:#B6E6FA;}
	.st2{fill:#54C9F3;}
	.st3{fill:#2AB200;}
	.st4{fill:#FCE7D1;}
	.st5{fill:#FFCEB7;}
	.st6{fill:none;}
	.st7{fill:#674399;}
</style>
<path class="st0" d="M483.4,412.5h-455c-11.4,0-20.7-9.3-20.7-20.7V29.9C7.8,18.5,17,9.3,28.4,9.3h455c11.4,0,20.7,9.3,20.7,20.7
	v361.9C504.1,403.3,494.9,412.5,483.4,412.5L483.4,412.5z"/>
<path class="st1" d="M483.4,9.3h-20.7c11.4,0,20.7,9.3,20.7,20.7v361.9c0,11.4-9.3,20.7-20.7,20.7h20.7c11.4,0,20.7-9.3,20.7-20.7
	V29.9C504.1,18.5,494.9,9.3,483.4,9.3z"/>
<path class="st1" d="M504.1,86.9H7.8v-57C7.8,18.5,17,9.3,28.4,9.3h455c11.4,0,20.7,9.3,20.7,20.7V86.9z"/>
<path class="st2" d="M502.5,21.9c-3.4-8-11.3-12.6-19.8-12.6c-5,0-10,0-15,0c-1.7,0-3.3,0-5,0c9.7,0,18.4,7.1,20.3,16.6
	c0.7,3.5,0.4,7.3,0.4,10.9v18.9v20.2v10.9v0.2h20.7c0-7,0-14,0-21c0-10.4,0-20.8,0-31.2C504.1,30.3,504.2,26,502.5,21.9z"/>
<path class="st3" d="M421.4,305.8H317.9c-17.1,0-31-14-31-31c0-17.1,14-31,31-31h103.4c17.1,0,31,14,31,31
	C452.4,291.8,438.4,305.8,421.4,305.8z"/>
<g>
	<g>
		<path class="st4" d="M504,406.9c0-12.9-10.4-23.3-23.3-23.3v0c-12.9,0-23.3,10.4-23.3,23.3v-15.5c0-12.9-10.4-23.3-23.3-23.3
			s-23.3,10.4-23.3,23.3v-15.6c0-12.9-10.4-23.3-23.3-23.3s-23.3,10.4-23.3,23.3v-77.5c0-12.9-10.4-23.3-23.3-23.3
			s-23.3,10.4-23.3,23.3V399l-23.1,0.5c-12.9,0-23.3,10.4-23.3,23.3l-0.1,64.4l13.4,25.1h219.5L504,406.9z"/>
	</g>
	<g>
		<path class="st5" d="M456.5,383.9c-2.1-6.2-6.8-11.3-12.8-13.9c-6.2-2.7-13.5-2.5-19.6,0.5c6.4,3.2,11.1,9.3,12.5,16.2
			c0.6,2.9,0.5,5.8,0.5,8.7v27v7.8l20.7,0.1c0-4.9,0-9.8,0-14.7c0-7.2,0-14.3,0-21.5C457.7,390.8,457.6,387.3,456.5,383.9
			L456.5,383.9z"/>
		<path class="st5" d="M409.9,368.5c-1.8-5.3-5.6-9.9-10.4-12.8v0c-6.7-3.9-15.1-4.2-22-0.7c7.9,3.9,12.9,12.1,12.9,20.9
			c0,2.9,0,5.9,0,8.8v35.8v9.6l20.4,0.3l0.3-54.6C411.2,373.3,410.7,370.8,409.9,368.5L409.9,368.5z"/>
		<path class="st5" d="M341.3,275.1c-3.7,0-7.2,0.9-10.3,2.4c7.7,3.8,12.9,11.7,12.9,20.8v131.9h20.7V298.4
			C364.6,285.5,354.2,275.1,341.3,275.1z"/>
		<path class="st5" d="M504.2,406.9c0-12.9-10.4-23.3-23.3-23.3c-3.7,0-7.2,0.9-10.3,2.4c7.7,3.8,12.9,11.7,12.9,20.8v105.3h20.7
			V406.9z"/>
		<polygon class="st5" points="297.4,476.7 318.1,476.7 318.1,399 297.4,399.4 		"/>
	</g>
</g>
<g>
	<path class="st0" d="M116.2,55.3h-15.4V39.8h15.4V55.3z M85.3,55.3H69.8V39.8h15.5V55.3z M54.3,55.3H38.8V39.8h15.5V55.3z"/>
</g>
<g>
	<path class="st6" d="M341,266.8L341,266.8c17,0,30.8,13.7,31,30.7h49.3c12.8,0,23.3-10.4,23.3-23.3c0-12.8-10.4-23.3-23.3-23.3
		H317.9c-12.8,0-23.3,10.4-23.3,23.3c0,10.1,6.4,18.7,15.4,21.9C310.9,279.8,324.5,266.8,341,266.8z"/>
	<path class="st6" d="M480.7,390.8c-8.6,0-15.5,7-15.5,15.5v23.3h-15.5v-23.3v-15.5c0-8.6-7-15.5-15.5-15.5s-15.5,7-15.5,15.5v38.8
		h-15.5v-38.8v-15.6c0-8.6-7-15.5-15.5-15.5s-15.5,7-15.5,15.5v54.4h-15.5v-54.4v-77.5c0-8.6-7-15.5-15.5-15.5s-15.5,7-15.5,15.5
		v84.8V406v70.1H310v-69.8l-15.4,0.3c-8.6,0-15.5,7-15.5,15.5L279,485l14.5,26.7h203l-0.2-105.3
		C496.2,397.8,489.2,390.8,480.7,390.8z"/>
	<path d="M279,485l0.1-62.8c0-8.6,7-15.5,15.5-15.5l15.4-0.3v69.8h15.5V406v-23.4v-84.8c0-8.6,7-15.5,15.5-15.5s15.5,7,15.5,15.5
		v77.5v54.4H372v-54.4c0-8.6,7-15.5,15.5-15.5s15.5,7,15.5,15.5v15.6v38.8h15.5v-38.8c0-8.6,7-15.5,15.5-15.5s15.5,7,15.5,15.5v15.5
		v23.3h15.5v-23.3c0-8.6,7-15.5,15.5-15.5s15.5,7,15.5,15.5l0.2,105.3h15.5l-0.2-105.3c0-17.1-13.9-31-31-31
		c-6.4,0-12.3,1.9-17.3,5.3c-4.3-12.1-15.8-20.7-29.3-20.7c-6.4,0-12.3,1.9-17.2,5.2c-4.2-12.1-15.8-20.8-29.3-20.8
		c-5.6,0-10.9,1.5-15.5,4.2V313h49.3c21.4,0,38.8-17.4,38.8-38.8c0-21.4-17.4-38.8-38.8-38.8H317.9c-21.4,0-38.8,17.4-38.8,38.8
		c0,18.7,13.3,34.3,30.9,38v70.5v8.2l-15.5,0.3c-14.3,0-26.4,9.9-29.9,23.1H28.4c-7.1,0-12.9-5.8-12.9-12.9V242.1H-0.1v159.2
		c0,15.7,12.8,28.4,28.4,28.4h235.2l-0.1,59.1l12.3,22.8h17.6L279,485z M294.6,274.2c0-12.8,10.4-23.3,23.3-23.3h103.4
		c12.8,0,23.3,10.4,23.3,23.3c0,12.8-10.4,23.3-23.3,23.3H372c-0.2-16.9-14-30.7-31-30.7v0c-16.5,0-30.1,13-31,29.3
		C301,292.9,294.6,284.3,294.6,274.2z"/>
</g>
<path d="M15.5,94.7h480.8v263.7h15.5V29.9c0-15.7-12.8-28.4-28.4-28.4h-455C12.8,1.5,0,14.3,0,29.9v186.7h15.5V94.7z M15.5,29.9
	c0-7.1,5.8-12.9,12.9-12.9h455c7.1,0,12.9,5.8,12.9,12.9v49.2H15.5V29.9z"/>
<path d="M286.9,125.6H380v15.5h-93.1V125.6z"/>
<path d="M286.9,155.7h155.2v15.5H286.9V155.7z"/>
<path d="M364.5,187.4h15.9v15.5h-15.9V187.4z"/>
<path d="M286.9,187.4H349v15.5h-62.1V187.4z"/>
<g>
	<polygon class="st7" points="124.4,234.5 204.5,188.3 166.8,166.5 86.8,212.7 	"/>
	<polygon class="st7" points="121.4,240.1 41.1,193.8 41.1,286.3 121.4,332.5 	"/>
	<rect x="192.4" y="287.4" class="st7" width="8.8" height="8.8"/>
	<path class="st7" d="M127.8,240.1v92.5l43.8-25.3v-66.7c0-7.6,6.1-13.9,13.8-13.9h11.5c1.3-4.9,5.7-8.3,10.8-8.3h-0.1v-24.4
		L127.8,240.1z"/>
	<path class="st7" d="M207.7,224.7h18.8c2.6,0,4.7,2.1,4.7,4.7v0.3c0,2.6-2.1,4.7-4.7,4.7h-18.8c-2.6,0-4.7-2.1-4.7-4.7v-0.3
		C203,226.8,205.1,224.7,207.7,224.7z"/>
	<polygon class="st7" points="160.4,162.8 124.4,142 44.4,188.3 80.3,209 	"/>
	<path class="st7" d="M248.6,233H237c-1.4,4.7-5.8,7.9-10.7,7.8h-18.6c-4.9,0-9.2-3.1-10.7-7.8h-11.6c-4.1,0-7.4,3.4-7.3,7.4
		c0,0,0,0,0,0v93.2c0,4,3.2,7.2,7.2,7.2c0.1,0,0.1,0,0.2,0h63.2c4,0.1,7.3-3.1,7.4-7.1c0,0,0-0.1,0-0.1v-93.2
		C256,236.4,252.7,233,248.6,233z M185.9,254.7c0-1.8,1.4-3.2,3.2-3.2c0,0,0,0,0,0h15.2c1.8,0,3.2,1.5,3.3,3.2v2.2
		c0,1.8-1.5,3.2-3.2,3.2c-1.4,0-2.7-0.8-3.1-2.2h-8.9v8.8h0.1c1.8,0,3.2,1.4,3.2,3.2s-1.4,3.2-3.2,3.2h-3.4c-1.8,0-3.2-1.4-3.2-3.2
		c0,0,0,0,0,0V254.7z M185.9,284.2c0-1.8,1.4-3.2,3.2-3.2h15.2c1.8,0,3.2,1.4,3.2,3.2v15.2c0,1.8-1.4,3.2-3.2,3.2h-15.2
		c-1.8,0-3.2-1.4-3.2-3.2V284.2z M192.5,332.1h-3.4c-1.7,0.1-3.2-1.3-3.2-3c0,0,0-0.1,0-0.1v-15.2c0-1.8,1.4-3.3,3.2-3.4h15.2
		c1.8,0.1,3.3,1.5,3.3,3.4v3.1c0,1.8-1.5,3.2-3.3,3.2c-1.7,0-3.1-1.4-3.2-3.2h-8.7v8.8h0.1c1.8,0,3.2,1.4,3.2,3.2
		S194.3,332.1,192.5,332.1L192.5,332.1z M216.3,319.6l-11.7,11.7c-1.3,1.3-3.3,1.3-4.6,0c0,0,0,0,0,0l-5.2-5.2
		c-1.3-1.3-1.3-3.3,0-4.6s3.3-1.3,4.6,0l2.9,2.9l9.5-9.5c1.3-1.3,3.3-1.3,4.6,0S217.6,318.3,216.3,319.6L216.3,319.6z M216.3,260
		l-11.7,11.7c-1.3,1.3-3.3,1.3-4.6,0c0,0,0,0,0,0l-5.2-5.2c-1.3-1.3-1.3-3.3,0-4.6s3.3-1.3,4.6,0l2.9,2.9l9.5-9.5
		c1.3-1.3,3.3-1.3,4.6,0C217.6,256.7,217.6,258.7,216.3,260L216.3,260z M244.9,324.8h-20.3c-1.8,0-3.2-1.4-3.2-3.2s1.4-3.2,3.2-3.2
		h20.3c1.8,0,3.2,1.4,3.2,3.2S246.7,324.8,244.9,324.8z M244.9,295.2h-20.3c-1.8,0-3.2-1.4-3.2-3.2s1.4-3.2,3.2-3.2h20.3
		c1.8,0,3.2,1.4,3.2,3.2S246.7,295.2,244.9,295.2z M244.9,265.7h-20.3c-1.8,0-3.2-1.4-3.2-3.2c0-1.8,1.4-3.2,3.2-3.2h20.3
		c1.8,0,3.2,1.4,3.2,3.2C248.1,264.3,246.7,265.7,244.9,265.7z"/>
</g>
<g>
	<g>
		<path class="st0" d="M426.5,260.8L426.5,260.8c-3.4-3.4-7.9-5.2-12.7-5.2c-13.7,0-22.3,14.9-15.5,26.7l-2.5,9.2l9.5-2.5
			c4.1,2.2,7.5,2,8.6,2.2C429.8,291.2,437.7,272,426.5,260.8z M413.9,288.1L413.9,288.1L413.9,288.1c-4.8,0-7.8-2.3-8.1-2.4
			l-5.6,1.5l1.5-5.5l-0.4-0.6c-1.5-2.4-2.3-5.1-2.3-7.9c0-13.2,16.1-19.7,25.4-10.4C433.7,272.1,427.1,288.1,413.9,288.1z"/>
	</g>
	<path class="st0" d="M422,277l0,0.1c-0.5-0.2-2.6-1.3-3.1-1.4c-0.9-0.3-0.7-0.1-2.4,2c-0.3,0.3-0.5,0.3-1,0.1
		c-0.4-0.2-1.9-0.7-3.6-2.2c-1.3-1.2-2.2-2.6-2.5-3.1c-0.4-0.8,0.5-0.9,1.3-2.4c0.1-0.3,0.1-0.6,0-0.8c-0.1-0.2-1-2.4-1.4-3.3
		c-0.4-0.9-0.7-0.8-1-0.8c-0.9-0.1-1.5-0.1-2,0.5c-2.4,2.7-1.8,5.4,0.3,8.3c4.1,5.3,6.2,6.3,10.2,7.7c1.1,0.3,2,0.3,2.8,0.2
		c0.9-0.1,2.6-1.1,3-2.1c0.4-1.1,0.4-1.9,0.3-2.1C422.8,277.3,422.5,277.2,422,277L422,277z"/>
</g>
</svg>
